<mxfile modified="2022-01-19T05:06:57.938Z" host="app.diagrams.net" agent="5.0 (Windows NT 10.0; Win64; x64) AppleWebKit/537.36 (KHTML, like Gecko) Chrome/97.0.4692.71 Safari/537.36" etag="0TpO2rzZ_s2qBQKlo0eU" version="16.2.7" type="github">
  <diagram id="Ht1M8jgEwFfnCIfOTk4-" name="Page-1">
    <mxGraphModel dx="1022" dy="1490" grid="1" gridSize="10" guides="1" tooltips="1" connect="1" arrows="1" fold="1" page="1" pageScale="1" pageWidth="1169" pageHeight="827" math="0" shadow="0">
      <root>
        <mxCell id="0" />
        <mxCell id="1" parent="0" />
        <mxCell id="UEzPUAAOIrF-is8g5C7q-175" value="AWS Cloud" style="points=[[0,0],[0.25,0],[0.5,0],[0.75,0],[1,0],[1,0.25],[1,0.5],[1,0.75],[1,1],[0.75,1],[0.5,1],[0.25,1],[0,1],[0,0.75],[0,0.5],[0,0.25]];outlineConnect=0;gradientColor=none;html=1;whiteSpace=wrap;fontSize=12;fontStyle=0;shape=mxgraph.aws4.group;grIcon=mxgraph.aws4.group_aws_cloud_alt;strokeColor=#232F3E;fillColor=none;verticalAlign=top;align=left;spacingLeft=30;fontColor=#232F3E;dashed=0;labelBackgroundColor=#ffffff;container=1;pointerEvents=0;collapsible=0;recursiveResize=0;" parent="1" vertex="1">
          <mxGeometry x="20" y="-660" width="1120" height="450" as="geometry" />
        </mxCell>
        <mxCell id="nyitZraSU37nMj-4SIgi-25" value="Build" style="endArrow=classic;html=1;rounded=0;fontColor=default;entryX=0.5;entryY=0;entryDx=0;entryDy=0;entryPerimeter=0;" edge="1" parent="UEzPUAAOIrF-is8g5C7q-175" source="nyitZraSU37nMj-4SIgi-15" target="nyitZraSU37nMj-4SIgi-24">
          <mxGeometry x="-0.5227" width="50" height="50" relative="1" as="geometry">
            <mxPoint x="390" y="170" as="sourcePoint" />
            <mxPoint x="370" y="300" as="targetPoint" />
            <mxPoint as="offset" />
          </mxGeometry>
        </mxCell>
        <mxCell id="nyitZraSU37nMj-4SIgi-35" value="StaticTest" style="edgeLabel;html=1;align=center;verticalAlign=middle;resizable=0;points=[];fontColor=default;" vertex="1" connectable="0" parent="nyitZraSU37nMj-4SIgi-25">
          <mxGeometry x="-0.1705" y="2" relative="1" as="geometry">
            <mxPoint x="-2" y="-11" as="offset" />
          </mxGeometry>
        </mxCell>
        <mxCell id="nyitZraSU37nMj-4SIgi-15" value="CodeBuild" style="sketch=0;points=[[0,0,0],[0.25,0,0],[0.5,0,0],[0.75,0,0],[1,0,0],[0,1,0],[0.25,1,0],[0.5,1,0],[0.75,1,0],[1,1,0],[0,0.25,0],[0,0.5,0],[0,0.75,0],[1,0.25,0],[1,0.5,0],[1,0.75,0]];outlineConnect=0;fontColor=#232F3E;gradientColor=#4D72F3;gradientDirection=north;fillColor=#3334B9;strokeColor=#ffffff;dashed=0;verticalLabelPosition=bottom;verticalAlign=top;align=center;html=1;fontSize=12;fontStyle=0;aspect=fixed;shape=mxgraph.aws4.resourceIcon;resIcon=mxgraph.aws4.codebuild;labelBackgroundColor=#FFFFFF;labelBorderColor=none;" vertex="1" parent="UEzPUAAOIrF-is8g5C7q-175">
          <mxGeometry x="328" y="50" width="78" height="78" as="geometry" />
        </mxCell>
        <mxCell id="nyitZraSU37nMj-4SIgi-21" value="Origen de datos" style="swimlane;horizontal=0;labelBackgroundColor=#FFFFFF;labelBorderColor=none;fontColor=default;" vertex="1" parent="UEzPUAAOIrF-is8g5C7q-175">
          <mxGeometry x="10" y="30" width="240" height="400" as="geometry" />
        </mxCell>
        <mxCell id="UEzPUAAOIrF-is8g5C7q-199" style="edgeStyle=orthogonalEdgeStyle;rounded=0;orthogonalLoop=1;jettySize=auto;html=1;startArrow=none;startFill=0;endArrow=open;endFill=0;strokeColor=#808080;strokeWidth=2;entryX=0.5;entryY=1;entryDx=0;entryDy=0;entryPerimeter=0;" parent="nyitZraSU37nMj-4SIgi-21" source="nyitZraSU37nMj-4SIgi-2" target="nyitZraSU37nMj-4SIgi-13" edge="1">
          <mxGeometry relative="1" as="geometry">
            <mxPoint x="348" y="170.5" as="targetPoint" />
          </mxGeometry>
        </mxCell>
        <mxCell id="nyitZraSU37nMj-4SIgi-2" value="EC2 instance contents" style="points=[[0,0],[0.25,0],[0.5,0],[0.75,0],[1,0],[1,0.25],[1,0.5],[1,0.75],[1,1],[0.75,1],[0.5,1],[0.25,1],[0,1],[0,0.75],[0,0.5],[0,0.25]];outlineConnect=0;gradientColor=none;html=1;whiteSpace=wrap;fontSize=12;fontStyle=0;container=1;pointerEvents=0;collapsible=0;recursiveResize=0;shape=mxgraph.aws4.group;grIcon=mxgraph.aws4.group_ec2_instance_contents;strokeColor=#D86613;fillColor=none;verticalAlign=top;align=left;spacingLeft=30;fontColor=#D86613;dashed=0;" vertex="1" parent="nyitZraSU37nMj-4SIgi-21">
          <mxGeometry x="30" y="190" width="190" height="201" as="geometry" />
        </mxCell>
        <mxCell id="nyitZraSU37nMj-4SIgi-3" value="AWS Cloud9" style="sketch=0;outlineConnect=0;fontColor=#232F3E;gradientColor=none;fillColor=#2E27AD;strokeColor=none;dashed=0;verticalLabelPosition=bottom;verticalAlign=top;align=center;html=1;fontSize=12;fontStyle=0;aspect=fixed;shape=mxgraph.aws4.cloud9;" vertex="1" parent="nyitZraSU37nMj-4SIgi-2">
          <mxGeometry x="11" y="117" width="78" height="50" as="geometry" />
        </mxCell>
        <mxCell id="nyitZraSU37nMj-4SIgi-6" value="SDKs&amp;nbsp;&lt;br&gt;Tools&lt;br&gt;Frameworks" style="sketch=0;outlineConnect=0;fontColor=#232F3E;gradientColor=none;fillColor=#232F3D;strokeColor=none;dashed=0;verticalLabelPosition=bottom;verticalAlign=top;align=center;html=1;fontSize=12;fontStyle=0;aspect=fixed;pointerEvents=1;shape=mxgraph.aws4.external_sdk;" vertex="1" parent="nyitZraSU37nMj-4SIgi-2">
          <mxGeometry x="110" y="30" width="68" height="78" as="geometry" />
        </mxCell>
        <mxCell id="nyitZraSU37nMj-4SIgi-7" value="Command &lt;br&gt;Line" style="sketch=0;pointerEvents=1;shadow=0;dashed=0;html=1;strokeColor=none;fillColor=#005F4B;labelPosition=center;verticalLabelPosition=bottom;verticalAlign=top;align=center;outlineConnect=0;shape=mxgraph.veeam2.command_line;" vertex="1" parent="nyitZraSU37nMj-4SIgi-2">
          <mxGeometry x="20" y="30" width="60" height="54" as="geometry" />
        </mxCell>
        <mxCell id="nyitZraSU37nMj-4SIgi-13" value="CodeCommit" style="sketch=0;points=[[0,0,0],[0.25,0,0],[0.5,0,0],[0.75,0,0],[1,0,0],[0,1,0],[0.25,1,0],[0.5,1,0],[0.75,1,0],[1,1,0],[0,0.25,0],[0,0.5,0],[0,0.75,0],[1,0.25,0],[1,0.5,0],[1,0.75,0]];outlineConnect=0;fontColor=default;gradientColor=#4D72F3;gradientDirection=north;fillColor=#3334B9;strokeColor=#ffffff;dashed=0;verticalLabelPosition=bottom;verticalAlign=top;align=center;html=1;fontSize=12;fontStyle=0;aspect=fixed;shape=mxgraph.aws4.resourceIcon;resIcon=mxgraph.aws4.codecommit;labelBackgroundColor=#FFFFFF;labelBorderColor=none;" vertex="1" parent="nyitZraSU37nMj-4SIgi-21">
          <mxGeometry x="86" y="20" width="78" height="78" as="geometry" />
        </mxCell>
        <mxCell id="nyitZraSU37nMj-4SIgi-23" value="Test y Deploy Stage" style="swimlane;horizontal=0;labelBackgroundColor=#FFFFFF;labelBorderColor=none;fontColor=default;" vertex="1" parent="UEzPUAAOIrF-is8g5C7q-175">
          <mxGeometry x="270" y="30" width="470" height="400" as="geometry" />
        </mxCell>
        <mxCell id="nyitZraSU37nMj-4SIgi-24" value="S3 bucket" style="outlineConnect=0;dashed=0;verticalLabelPosition=bottom;verticalAlign=top;align=center;html=1;shape=mxgraph.aws3.bucket_with_objects;fillColor=#E05243;gradientColor=none;labelBackgroundColor=#FFFFFF;labelBorderColor=none;fontColor=default;" vertex="1" parent="nyitZraSU37nMj-4SIgi-23">
          <mxGeometry x="57" y="274" width="60" height="61.5" as="geometry" />
        </mxCell>
        <mxCell id="nyitZraSU37nMj-4SIgi-26" value="" style="sketch=0;points=[[0,0,0],[0.25,0,0],[0.5,0,0],[0.75,0,0],[1,0,0],[0,1,0],[0.25,1,0],[0.5,1,0],[0.75,1,0],[1,1,0],[0,0.25,0],[0,0.5,0],[0,0.75,0],[1,0.25,0],[1,0.5,0],[1,0.75,0]];outlineConnect=0;fontColor=#232F3E;gradientColor=#F54749;gradientDirection=north;fillColor=#C7131F;strokeColor=#ffffff;dashed=0;verticalLabelPosition=bottom;verticalAlign=top;align=center;html=1;fontSize=12;fontStyle=0;aspect=fixed;shape=mxgraph.aws4.resourceIcon;resIcon=mxgraph.aws4.artifact;labelBackgroundColor=#FFFFFF;labelBorderColor=none;" vertex="1" parent="nyitZraSU37nMj-4SIgi-23">
          <mxGeometry x="40" y="220" width="39" height="39" as="geometry" />
        </mxCell>
        <mxCell id="nyitZraSU37nMj-4SIgi-28" value="" style="sketch=0;outlineConnect=0;fontColor=#232F3E;gradientColor=none;fillColor=#B0084D;strokeColor=none;dashed=0;verticalLabelPosition=bottom;verticalAlign=top;align=center;html=1;fontSize=12;fontStyle=0;aspect=fixed;pointerEvents=1;shape=mxgraph.aws4.template;labelBackgroundColor=#FFFFFF;labelBorderColor=none;" vertex="1" parent="nyitZraSU37nMj-4SIgi-23">
          <mxGeometry x="45.34" y="170" width="28.33" height="34" as="geometry" />
        </mxCell>
        <mxCell id="nyitZraSU37nMj-4SIgi-30" value="AWS CloudFormation" style="sketch=0;outlineConnect=0;fontColor=#232F3E;gradientColor=none;strokeColor=#ffffff;fillColor=#232F3E;dashed=0;verticalLabelPosition=middle;verticalAlign=bottom;align=center;html=1;whiteSpace=wrap;fontSize=10;fontStyle=1;spacing=3;shape=mxgraph.aws4.productIcon;prIcon=mxgraph.aws4.cloudformation;labelBackgroundColor=#FFFFFF;labelBorderColor=none;" vertex="1" parent="nyitZraSU37nMj-4SIgi-23">
          <mxGeometry x="150" y="20" width="80" height="100" as="geometry" />
        </mxCell>
        <mxCell id="nyitZraSU37nMj-4SIgi-31" value="" style="endArrow=classic;html=1;rounded=0;fontColor=default;exitX=0.5;exitY=0;exitDx=0;exitDy=0;exitPerimeter=0;" edge="1" parent="nyitZraSU37nMj-4SIgi-23" source="nyitZraSU37nMj-4SIgi-24" target="nyitZraSU37nMj-4SIgi-30">
          <mxGeometry width="50" height="50" relative="1" as="geometry">
            <mxPoint x="110" y="140" as="sourcePoint" />
            <mxPoint x="160" y="90" as="targetPoint" />
          </mxGeometry>
        </mxCell>
        <mxCell id="nyitZraSU37nMj-4SIgi-32" value="Create &lt;br&gt;ChangeSet" style="sketch=0;outlineConnect=0;fontColor=#232F3E;gradientColor=none;fillColor=#B0084D;strokeColor=none;dashed=0;verticalLabelPosition=bottom;verticalAlign=top;align=center;html=1;fontSize=12;fontStyle=0;aspect=fixed;pointerEvents=1;shape=mxgraph.aws4.change_set;labelBackgroundColor=#FFFFFF;labelBorderColor=none;" vertex="1" parent="nyitZraSU37nMj-4SIgi-23">
          <mxGeometry x="157.5" y="257.5" width="65" height="78" as="geometry" />
        </mxCell>
        <mxCell id="nyitZraSU37nMj-4SIgi-33" value="" style="endArrow=classic;html=1;rounded=0;fontColor=default;" edge="1" parent="nyitZraSU37nMj-4SIgi-23" source="nyitZraSU37nMj-4SIgi-30" target="nyitZraSU37nMj-4SIgi-32">
          <mxGeometry width="50" height="50" relative="1" as="geometry">
            <mxPoint x="110" y="140" as="sourcePoint" />
            <mxPoint x="160" y="90" as="targetPoint" />
          </mxGeometry>
        </mxCell>
        <mxCell id="nyitZraSU37nMj-4SIgi-38" value="" style="endArrow=classic;html=1;rounded=0;fontColor=default;" edge="1" parent="nyitZraSU37nMj-4SIgi-23" source="nyitZraSU37nMj-4SIgi-36" target="nyitZraSU37nMj-4SIgi-32">
          <mxGeometry width="50" height="50" relative="1" as="geometry">
            <mxPoint x="270" y="120" as="sourcePoint" />
            <mxPoint x="330" y="170" as="targetPoint" />
          </mxGeometry>
        </mxCell>
        <mxCell id="nyitZraSU37nMj-4SIgi-40" value="" style="endArrow=classic;html=1;rounded=0;fontColor=default;" edge="1" parent="nyitZraSU37nMj-4SIgi-23" source="nyitZraSU37nMj-4SIgi-37" target="nyitZraSU37nMj-4SIgi-36">
          <mxGeometry width="50" height="50" relative="1" as="geometry">
            <mxPoint x="290" y="250" as="sourcePoint" />
            <mxPoint x="160" y="90" as="targetPoint" />
          </mxGeometry>
        </mxCell>
        <mxCell id="nyitZraSU37nMj-4SIgi-36" value="Staging Stack" style="sketch=0;outlineConnect=0;fontColor=#232F3E;gradientColor=none;fillColor=#B0084D;strokeColor=none;dashed=0;verticalLabelPosition=bottom;verticalAlign=top;align=center;html=1;fontSize=12;fontStyle=0;aspect=fixed;pointerEvents=1;shape=mxgraph.aws4.stack;labelBackgroundColor=#FFFFFF;labelBorderColor=none;" vertex="1" parent="nyitZraSU37nMj-4SIgi-23">
          <mxGeometry x="270" y="120" width="78" height="76" as="geometry" />
        </mxCell>
        <mxCell id="nyitZraSU37nMj-4SIgi-37" value="Execute &lt;br&gt;ChangeSet" style="sketch=0;outlineConnect=0;fontColor=#232F3E;gradientColor=none;fillColor=#B0084D;strokeColor=none;dashed=0;verticalLabelPosition=bottom;verticalAlign=top;align=center;html=1;fontSize=12;fontStyle=0;aspect=fixed;pointerEvents=1;shape=mxgraph.aws4.change_set;labelBackgroundColor=#FFFFFF;labelBorderColor=none;" vertex="1" parent="nyitZraSU37nMj-4SIgi-23">
          <mxGeometry x="276.5" y="257.5" width="65" height="78" as="geometry" />
        </mxCell>
        <mxCell id="nyitZraSU37nMj-4SIgi-39" value="" style="endArrow=classic;html=1;rounded=0;fontColor=default;" edge="1" parent="nyitZraSU37nMj-4SIgi-23" source="nyitZraSU37nMj-4SIgi-32" target="nyitZraSU37nMj-4SIgi-37">
          <mxGeometry width="50" height="50" relative="1" as="geometry">
            <mxPoint x="110" y="140" as="sourcePoint" />
            <mxPoint x="160" y="90" as="targetPoint" />
          </mxGeometry>
        </mxCell>
        <mxCell id="nyitZraSU37nMj-4SIgi-41" value="CodeBuild&lt;br&gt;Test" style="sketch=0;points=[[0,0,0],[0.25,0,0],[0.5,0,0],[0.75,0,0],[1,0,0],[0,1,0],[0.25,1,0],[0.5,1,0],[0.75,1,0],[1,1,0],[0,0.25,0],[0,0.5,0],[0,0.75,0],[1,0.25,0],[1,0.5,0],[1,0.75,0]];outlineConnect=0;fontColor=#232F3E;gradientColor=#4D72F3;gradientDirection=north;fillColor=#3334B9;strokeColor=#ffffff;dashed=0;verticalLabelPosition=bottom;verticalAlign=top;align=center;html=1;fontSize=12;fontStyle=0;aspect=fixed;shape=mxgraph.aws4.resourceIcon;resIcon=mxgraph.aws4.codebuild;labelBackgroundColor=#FFFFFF;labelBorderColor=none;" vertex="1" parent="nyitZraSU37nMj-4SIgi-23">
          <mxGeometry x="360" y="20" width="78" height="78" as="geometry" />
        </mxCell>
        <mxCell id="nyitZraSU37nMj-4SIgi-42" value="" style="curved=1;endArrow=classic;html=1;rounded=0;fontColor=default;entryX=0;entryY=0.5;entryDx=0;entryDy=0;entryPerimeter=0;" edge="1" parent="nyitZraSU37nMj-4SIgi-23" source="nyitZraSU37nMj-4SIgi-36" target="nyitZraSU37nMj-4SIgi-41">
          <mxGeometry width="50" height="50" relative="1" as="geometry">
            <mxPoint x="110" y="140" as="sourcePoint" />
            <mxPoint x="160" y="90" as="targetPoint" />
            <Array as="points">
              <mxPoint x="320" y="100" />
              <mxPoint x="330" y="59" />
            </Array>
          </mxGeometry>
        </mxCell>
        <mxCell id="nyitZraSU37nMj-4SIgi-20" value="" style="endArrow=classic;html=1;rounded=0;fontColor=default;exitX=1;exitY=0.5;exitDx=0;exitDy=0;exitPerimeter=0;entryX=0;entryY=0.5;entryDx=0;entryDy=0;entryPerimeter=0;" edge="1" parent="UEzPUAAOIrF-is8g5C7q-175" source="nyitZraSU37nMj-4SIgi-13" target="nyitZraSU37nMj-4SIgi-15">
          <mxGeometry width="50" height="50" relative="1" as="geometry">
            <mxPoint x="390" y="-30" as="sourcePoint" />
            <mxPoint x="440" y="-80" as="targetPoint" />
          </mxGeometry>
        </mxCell>
        <mxCell id="nyitZraSU37nMj-4SIgi-43" value="Deploy Production" style="swimlane;horizontal=0;labelBackgroundColor=#FFFFFF;labelBorderColor=none;fontColor=default;" vertex="1" parent="UEzPUAAOIrF-is8g5C7q-175">
          <mxGeometry x="750" y="30" width="360" height="400" as="geometry" />
        </mxCell>
        <mxCell id="nyitZraSU37nMj-4SIgi-46" value="AWS CloudFormation" style="sketch=0;outlineConnect=0;fontColor=#232F3E;gradientColor=none;strokeColor=#ffffff;fillColor=#232F3E;dashed=0;verticalLabelPosition=middle;verticalAlign=bottom;align=center;html=1;whiteSpace=wrap;fontSize=10;fontStyle=1;spacing=3;shape=mxgraph.aws4.productIcon;prIcon=mxgraph.aws4.cloudformation;labelBackgroundColor=#FFFFFF;labelBorderColor=none;" vertex="1" parent="nyitZraSU37nMj-4SIgi-43">
          <mxGeometry x="28.5" y="20" width="80" height="100" as="geometry" />
        </mxCell>
        <mxCell id="nyitZraSU37nMj-4SIgi-55" style="edgeStyle=orthogonalEdgeStyle;rounded=0;orthogonalLoop=1;jettySize=auto;html=1;entryX=0;entryY=0.5;entryDx=0;entryDy=0;fontColor=default;" edge="1" parent="nyitZraSU37nMj-4SIgi-43" source="nyitZraSU37nMj-4SIgi-47" target="nyitZraSU37nMj-4SIgi-49">
          <mxGeometry relative="1" as="geometry" />
        </mxCell>
        <mxCell id="nyitZraSU37nMj-4SIgi-47" value="Create &lt;br&gt;ChangeSet" style="sketch=0;outlineConnect=0;fontColor=#232F3E;gradientColor=none;fillColor=#B0084D;strokeColor=none;dashed=0;verticalLabelPosition=bottom;verticalAlign=top;align=center;html=1;fontSize=12;fontStyle=0;aspect=fixed;pointerEvents=1;shape=mxgraph.aws4.change_set;labelBackgroundColor=#FFFFFF;labelBorderColor=none;" vertex="1" parent="nyitZraSU37nMj-4SIgi-43">
          <mxGeometry x="36" y="257" width="65" height="78" as="geometry" />
        </mxCell>
        <mxCell id="nyitZraSU37nMj-4SIgi-57" style="edgeStyle=orthogonalEdgeStyle;rounded=0;orthogonalLoop=1;jettySize=auto;html=1;fontColor=default;" edge="1" parent="nyitZraSU37nMj-4SIgi-43" source="nyitZraSU37nMj-4SIgi-48" target="nyitZraSU37nMj-4SIgi-51">
          <mxGeometry relative="1" as="geometry" />
        </mxCell>
        <mxCell id="nyitZraSU37nMj-4SIgi-48" value="Execute &lt;br&gt;ChangeSet" style="sketch=0;outlineConnect=0;fontColor=#232F3E;gradientColor=none;fillColor=#B0084D;strokeColor=none;dashed=0;verticalLabelPosition=bottom;verticalAlign=top;align=center;html=1;fontSize=12;fontStyle=0;aspect=fixed;pointerEvents=1;shape=mxgraph.aws4.change_set;labelBackgroundColor=#FFFFFF;labelBorderColor=none;" vertex="1" parent="nyitZraSU37nMj-4SIgi-43">
          <mxGeometry x="240" y="257" width="65" height="78" as="geometry" />
        </mxCell>
        <mxCell id="nyitZraSU37nMj-4SIgi-56" style="edgeStyle=orthogonalEdgeStyle;rounded=0;orthogonalLoop=1;jettySize=auto;html=1;exitX=1;exitY=0.5;exitDx=0;exitDy=0;fontColor=default;" edge="1" parent="nyitZraSU37nMj-4SIgi-43" source="nyitZraSU37nMj-4SIgi-49" target="nyitZraSU37nMj-4SIgi-48">
          <mxGeometry relative="1" as="geometry" />
        </mxCell>
        <mxCell id="nyitZraSU37nMj-4SIgi-49" value="Aprobación&amp;nbsp;&lt;br&gt;Manual" style="shape=image;html=1;verticalAlign=top;verticalLabelPosition=bottom;labelBackgroundColor=#ffffff;imageAspect=0;aspect=fixed;image=https://cdn3.iconfinder.com/data/icons/ballicons-reloaded-free/512/icon-91-128.png;labelBorderColor=none;fontColor=default;" vertex="1" parent="nyitZraSU37nMj-4SIgi-43">
          <mxGeometry x="130" y="259" width="74" height="74" as="geometry" />
        </mxCell>
        <mxCell id="nyitZraSU37nMj-4SIgi-50" value="" style="endArrow=classic;html=1;rounded=0;fontColor=default;" edge="1" parent="nyitZraSU37nMj-4SIgi-43" source="nyitZraSU37nMj-4SIgi-46" target="nyitZraSU37nMj-4SIgi-47">
          <mxGeometry width="50" height="50" relative="1" as="geometry">
            <mxPoint x="-290" y="130" as="sourcePoint" />
            <mxPoint x="-290" y="267.8503078086187" as="targetPoint" />
          </mxGeometry>
        </mxCell>
        <mxCell id="nyitZraSU37nMj-4SIgi-51" value="Production&lt;br&gt;Stack&lt;br&gt;" style="sketch=0;outlineConnect=0;fontColor=#232F3E;gradientColor=none;fillColor=#B0084D;strokeColor=none;dashed=0;verticalLabelPosition=bottom;verticalAlign=top;align=center;html=1;fontSize=12;fontStyle=0;aspect=fixed;pointerEvents=1;shape=mxgraph.aws4.stack;labelBackgroundColor=#FFFFFF;labelBorderColor=none;" vertex="1" parent="nyitZraSU37nMj-4SIgi-43">
          <mxGeometry x="233.5" y="20" width="78" height="76" as="geometry" />
        </mxCell>
        <mxCell id="nyitZraSU37nMj-4SIgi-59" value="" style="endArrow=classic;html=1;rounded=0;fontColor=default;" edge="1" parent="nyitZraSU37nMj-4SIgi-43" source="nyitZraSU37nMj-4SIgi-51" target="nyitZraSU37nMj-4SIgi-47">
          <mxGeometry width="50" height="50" relative="1" as="geometry">
            <mxPoint x="-193.6498194945848" y="206" as="sourcePoint" />
            <mxPoint x="-247.5" y="268.67436974789916" as="targetPoint" />
            <Array as="points" />
          </mxGeometry>
        </mxCell>
        <mxCell id="nyitZraSU37nMj-4SIgi-27" value="" style="curved=1;endArrow=classic;html=1;rounded=0;fontColor=default;exitX=0.5;exitY=1;exitDx=0;exitDy=0;exitPerimeter=0;" edge="1" parent="1" source="nyitZraSU37nMj-4SIgi-17">
          <mxGeometry width="50" height="50" relative="1" as="geometry">
            <mxPoint x="480" y="-490" as="sourcePoint" />
            <mxPoint x="590" y="-630" as="targetPoint" />
            <Array as="points">
              <mxPoint x="520" y="-700" />
              <mxPoint x="600" y="-690" />
            </Array>
          </mxGeometry>
        </mxCell>
        <mxCell id="nyitZraSU37nMj-4SIgi-54" style="edgeStyle=orthogonalEdgeStyle;rounded=0;orthogonalLoop=1;jettySize=auto;html=1;fontColor=default;" edge="1" parent="1" source="nyitZraSU37nMj-4SIgi-8" target="nyitZraSU37nMj-4SIgi-2">
          <mxGeometry relative="1" as="geometry" />
        </mxCell>
        <mxCell id="nyitZraSU37nMj-4SIgi-8" value="" style="html=1;verticalLabelPosition=bottom;align=center;labelBackgroundColor=#ffffff;verticalAlign=top;strokeWidth=2;strokeColor=#0080F0;shadow=0;dashed=0;shape=mxgraph.ios7.icons.user;" vertex="1" parent="1">
          <mxGeometry x="120" y="-180" width="70" height="72" as="geometry" />
        </mxCell>
        <mxCell id="nyitZraSU37nMj-4SIgi-17" value="CodePipeline" style="sketch=0;points=[[0,0,0],[0.25,0,0],[0.5,0,0],[0.75,0,0],[1,0,0],[0,1,0],[0.25,1,0],[0.5,1,0],[0.75,1,0],[1,1,0],[0,0.25,0],[0,0.5,0],[0,0.75,0],[1,0.25,0],[1,0.5,0],[1,0.75,0]];outlineConnect=0;fontColor=#232F3E;gradientColor=#4D72F3;gradientDirection=north;fillColor=#3334B9;strokeColor=#ffffff;dashed=0;verticalLabelPosition=bottom;verticalAlign=top;align=center;html=1;fontSize=12;fontStyle=0;aspect=fixed;shape=mxgraph.aws4.resourceIcon;resIcon=mxgraph.aws4.codepipeline;labelBackgroundColor=#FFFFFF;labelBorderColor=none;" vertex="1" parent="1">
          <mxGeometry x="520" y="-810" width="78" height="78" as="geometry" />
        </mxCell>
        <mxCell id="nyitZraSU37nMj-4SIgi-19" value="" style="curved=1;endArrow=classic;html=1;rounded=0;fontColor=default;exitX=0;exitY=0.5;exitDx=0;exitDy=0;exitPerimeter=0;entryX=0.5;entryY=0;entryDx=0;entryDy=0;" edge="1" parent="1" source="nyitZraSU37nMj-4SIgi-17" target="nyitZraSU37nMj-4SIgi-21">
          <mxGeometry width="50" height="50" relative="1" as="geometry">
            <mxPoint x="260" y="-700" as="sourcePoint" />
            <mxPoint x="230" y="-610" as="targetPoint" />
            <Array as="points">
              <mxPoint x="260" y="-750" />
            </Array>
          </mxGeometry>
        </mxCell>
        <mxCell id="nyitZraSU37nMj-4SIgi-45" value="" style="curved=1;endArrow=classic;html=1;rounded=0;fontColor=default;exitX=1;exitY=0.5;exitDx=0;exitDy=0;exitPerimeter=0;entryX=0.5;entryY=0;entryDx=0;entryDy=0;" edge="1" parent="1" source="nyitZraSU37nMj-4SIgi-17" target="nyitZraSU37nMj-4SIgi-43">
          <mxGeometry width="50" height="50" relative="1" as="geometry">
            <mxPoint x="780" y="-490" as="sourcePoint" />
            <mxPoint x="830" y="-540" as="targetPoint" />
            <Array as="points">
              <mxPoint x="840" y="-760" />
            </Array>
          </mxGeometry>
        </mxCell>
        <mxCell id="nyitZraSU37nMj-4SIgi-63" value="CloudWatch event" style="sketch=0;outlineConnect=0;fontColor=#232F3E;gradientColor=none;fillColor=#B0084D;strokeColor=none;dashed=0;verticalLabelPosition=bottom;verticalAlign=top;align=center;html=1;fontSize=12;fontStyle=0;aspect=fixed;pointerEvents=1;shape=mxgraph.aws4.event_event_based;labelBackgroundColor=#FFFFFF;labelBorderColor=none;" vertex="1" parent="1">
          <mxGeometry x="310" y="-732" width="38" height="38" as="geometry" />
        </mxCell>
      </root>
    </mxGraphModel>
  </diagram>
</mxfile>
